<?xml version="1.0" encoding="UTF-8"?>
<svg id="Capa_1" data-name="Capa 1" xmlns="http://www.w3.org/2000/svg" viewBox="0 0 113.34 113.74">
  <defs>
    <style>
      .cls-1 {
        fill: #fff;
      }

      .cls-2 {
        fill: #010101;
      }
    </style>
  </defs>
  <circle class="cls-2" cx="56.67" cy="57.97" r="37.98"/>
  <g>
    <path class="cls-1" d="m46.36,41.75c1.52,0,2.9.13,4.15.4,1.25.26,2.32.71,3.22,1.31.89.61,1.58,1.41,2.08,2.43.49,1,.73,2.25.73,3.74,0,1.6-.36,2.94-1.09,4.01-.73,1.07-1.81,1.94-3.25,2.63,1.96.56,3.41,1.56,4.37,2.97.97,1.42,1.44,3.12,1.44,5.11,0,1.61-.31,3.01-.93,4.17-.62,1.18-1.47,2.14-2.52,2.88-1.05.75-2.27,1.29-3.62,1.65-1.34.36-2.73.54-4.16.54h-15.43v-31.84h15.01Zm-.91,12.86c1.24,0,2.27-.29,3.09-.89.81-.59,1.2-1.56,1.2-2.9,0-.74-.13-1.35-.39-1.83-.27-.48-.63-.85-1.08-1.11-.45-.27-.96-.46-1.54-.56-.58-.11-1.18-.16-1.8-.16h-6.56v7.44h7.09Zm.39,13.56c.69,0,1.35-.06,1.97-.2.63-.14,1.18-.35,1.65-.68.47-.31.86-.73,1.14-1.27.28-.53.42-1.23.42-2.06,0-1.64-.46-2.81-1.38-3.51-.92-.7-2.15-1.04-3.66-1.04h-7.62v8.77h7.48Z"/>
    <path class="cls-1" d="m68.01,68.06c.95.93,2.32,1.39,4.1,1.39,1.28,0,2.38-.32,3.31-.97.92-.64,1.48-1.33,1.69-2.04h5.58c-.9,2.77-2.26,4.76-4.11,5.95-1.83,1.2-4.07,1.79-6.68,1.79-1.82,0-3.45-.29-4.92-.87-1.47-.59-2.69-1.41-3.72-2.48-1-1.08-1.79-2.35-2.34-3.84-.55-1.49-.83-3.13-.83-4.91s.29-3.33.85-4.82c.58-1.49,1.37-2.78,2.41-3.86,1.05-1.09,2.29-1.94,3.74-2.57,1.45-.62,3.04-.94,4.81-.94,1.95,0,3.66.38,5.12,1.14,1.46.75,2.66,1.78,3.6,3.06.94,1.28,1.61,2.74,2.03,4.38.41,1.63.56,3.34.44,5.13h-16.64c0,1.82.62,3.55,1.57,4.48Zm7.28-12.11c-.75-.83-2.03-1.28-3.58-1.28-1.01,0-1.85.17-2.52.52-.66.34-1.19.77-1.6,1.27-.41.51-.69,1.05-.85,1.62-.16.56-.26,1.07-.29,1.52h10.3c-.15-1.61-.7-2.81-1.46-3.65Z"/>
    <rect class="cls-1" x="65.15" y="43.88" width="12.91" height="3.14"/>
  </g>
</svg>