<?xml version="1.0" encoding="UTF-8"?>
<svg id="Capa_1" data-name="Capa 1" xmlns="http://www.w3.org/2000/svg" viewBox="0 0 113.34 113.74">
  <defs>
    <style>
      .cls-1 {
        fill: #fff;
      }

      .cls-2 {
        fill: #010101;
      }
    </style>
  </defs>
  <path class="cls-2" d="m95.18,58.28c0-20.98-17.01-37.98-37.98-37.98S19.21,37.3,19.21,58.28c0,18.96,13.89,34.67,32.05,37.52v-26.54h-9.64v-10.98h9.64v-8.37c0-9.52,5.67-14.78,14.35-14.78,4.16,0,8.5.74,8.5.74v9.35h-4.79c-4.72,0-6.19,2.93-6.19,5.93v7.13h10.53l-1.68,10.98h-8.85v26.54c18.16-2.85,32.05-18.56,32.05-37.52Z"/>
  <path class="cls-1" d="m71.98,69.26l1.68-10.98h-10.53v-7.13c0-3,1.47-5.93,6.19-5.93h4.79v-9.35s-4.35-.74-8.5-.74c-8.68,0-14.35,5.26-14.35,14.78v8.37h-9.64v10.98h9.64v26.54c1.93.3,3.92.46,5.93.46s4-.16,5.93-.46v-26.54h8.85Z"/>
</svg>