<?xml version="1.0" encoding="UTF-8"?>
<svg id="Capa_1" data-name="Capa 1" xmlns="http://www.w3.org/2000/svg" viewBox="0 0 113.34 113.74">
  <path d="m92.47,62.04c0,6.83.09,13.66-.02,20.49-.14,9.01-5.98,15.25-14.95,15.41-13.66.25-27.32.28-40.98-.01-9.9-.21-15.55-6.37-15.61-16.34-.08-13.16-.09-26.32,0-39.48.07-10.22,5.92-16.05,16.26-16.14,12.99-.12,25.99-.11,38.98,0,10.47.08,16.21,6.03,16.31,16.59.03,3.33.01,6.66.01,10,0,3.17,0,6.33,0,9.5Zm-35.67,20.04c7.67,0,13.18-.86,16.11-2.47,1.5-.82,2.91-1.74,2.88-3.71-.03-1.95-1.37-2.99-2.96-3.62-1.85-.73-3.74-1.52-5.68-1.8-3.57-.53-3.21-1.8-1.27-4.06,2.49-2.92,4.53-6.16,5.59-9.92,2.95-10.46-3.86-20.14-14.31-20.34-6.24-.12-10.93,2.64-13.93,8.01-3.33,5.97-2.39,11.86,1.08,17.47,1.48,2.39,4.64,4.89,4.35,6.97-.45,3.2-5,1.8-7.45,3.3-1.74,1.06-3.71,1.8-3.62,4.24.09,2.17,1.84,3.02,3.54,3.77,5.01,2.2,10.35,2.19,15.68,2.18Z"/>
  <path d="m44.12,51.6c.06-7.05,6.52-13.12,13.4-12.59,7.28.56,12.87,7.57,11.51,14.72-1.28,6.75-5.89,11.41-10.62,15.92-.94.9-1.93.9-3.16.2-4.92-2.83-11.18-12.97-11.14-18.25Zm12.65-7.09c-3.56-.05-6.94,3.32-7.03,7.03-.09,3.57,3.33,7.01,7,7.03,3.72.03,6.96-3.21,6.99-6.98.03-3.64-3.3-7.03-6.96-7.08Z"/>
  <path d="m56.49,79.26c-3.82.03-7.63-.09-11.34-1.13-1.23-.34-3.04-.43-3.12-1.97-.1-1.92,1.91-2.01,3.25-2.37,3.2-.84,6.47-1.76,9.63.16,1.29.78,2.45.62,3.73-.07,3.93-2.1,7.74-.59,11.54.55.75.23,1.72.45,1.72,1.49,0,1.02-.92,1.28-1.69,1.56-4.43,1.66-9.06,1.86-13.72,1.78Z"/>
</svg>