<?xml version="1.0" encoding="UTF-8"?>
<svg id="Capa_1" data-name="Capa 1" xmlns="http://www.w3.org/2000/svg" viewBox="0 0 113.34 113.74">
  <path d="m92.76,58.67c.04,19.85-16.02,36.25-35.65,36.4-20.35.15-36.42-15.7-36.52-36.03-.09-20.16,16.25-36.69,36.13-36.54,19.68.14,36,16.52,36.04,36.17Zm-36.34-23.61c-10.87-.08-18.84,11.46-14.27,21.6,3.52,7.8,8.29,15.04,12.5,22.54,1.17,2.08,2.41,2.67,3.8.19,4.3-7.67,9.21-15.07,12.73-23.08,4.47-10.14-3.58-21.16-14.77-21.25Z"/>
  <path d="m67.62,51.07c-.11,5.99-5.49,11.03-11.45,10.75-5.84-.28-10.37-5.21-10.26-11.17.12-6.32,4.98-10.93,11.29-10.7,5.72.21,10.54,5.35,10.43,11.11Z"/>
</svg>