<?xml version="1.0" encoding="UTF-8"?>
<svg id="Capa_1" data-name="Capa 1" xmlns="http://www.w3.org/2000/svg" viewBox="0 0 113.34 113.74">
  <path d="m56.28,91.14c-6.86.3-13.65-.21-20.16-2.57-3.38-1.23-6.81-2.83-6.78-7.01.02-3.97,3.45-5.33,6.57-6.63.15-.06.33-.08.47-.16,2.76-1.41,7.62-.28,8.25-3.08.47-2.06-3.18-5.02-4.91-7.64-6.97-10.57-7.26-21.27-.82-29.25,7.15-8.87,18.51-11.34,28.24-6.13,9.39,5.02,13.76,15.87,10.67,26.53-1.37,4.72-3.98,8.75-6.96,12.59-3.52,4.54-3.48,4.48,1.86,5.89,2.4.63,4.76,1.49,7.03,2.49,2.39,1.06,4.25,2.81,4.28,5.64.03,2.89-2.11,4.4-4.34,5.62-4.79,2.63-10.12,3.19-15.42,3.69-2.64.25-5.32.04-7.98.04Zm-15.97-41.01c.91,8.99,7.65,15.9,14.61,22.62,1.65,1.6,3.14.24,4.32-.9,5.31-5.09,10.08-10.62,12.7-17.63,2.38-6.38.58-13.84-4.49-18.22-5.13-4.44-11.17-5.24-17.26-2.68-6.58,2.77-9.82,8.16-9.88,16.81Zm-4.96,31.03c10.58,6,35.71,5.61,41.64-.45-6.8-.59-12.93-5.31-19.31.21-.88.76-1.93.31-2.76-.32-6.32-4.83-12.22-.92-19.58.56Z"/>
  <path d="m56.38,37.79c5.72-.02,10.73,4.69,10.84,10.18.11,5.73-5.07,11-10.71,10.91-5.67-.09-10.36-4.87-10.42-10.6-.06-5.95,4.38-10.47,10.29-10.48Z"/>
</svg>