<?xml version="1.0" encoding="UTF-8"?>
<svg id="Capa_1" data-name="Capa 1" xmlns="http://www.w3.org/2000/svg" viewBox="0 0 113.34 113.74">
  <path d="m92.46,57.56c0,7,.12,14-.03,20.99-.18,8.49-5.8,14.75-14.32,14.97-14.32.37-28.65.4-42.97,0-8.46-.24-14.09-6.57-14.19-15.12-.16-13.82-.15-27.65,0-41.48.1-9.01,6.09-15.1,15.12-15.23,13.82-.2,27.65-.22,41.48,0,9.03.15,14.77,6.28,14.91,15.39.1,6.83.02,13.66,0,20.49Zm-35.92,25.02c5.33,0,10.66-.07,15.99.03,3.11.05,4.62-1.18,4.58-4.4-.08-6-.07-11.99,0-17.99.03-2.58-1.11-4.43-3.01-5.99-4.64-3.79-9.32-7.55-13.87-11.44-2.46-2.1-4.6-2.1-7.05.01-4.67,4.01-9.45,7.91-14.24,11.79-2,1.62-2.67,3.66-2.64,6.15.07,5.5.13,11-.02,16.49-.11,3.8,1.39,5.51,5.27,5.4,4.99-.15,9.99-.04,14.99-.03Zm26.88-29.7c-.52-.71-.82-1.34-1.31-1.74-7.83-6.47-15.68-12.93-23.55-19.35-1.38-1.12-2.79-.8-4.09.27-7.47,6.13-14.96,12.23-22.4,18.4-1.13.94-2.46,2.28-1,3.78,1.23,1.27,2.49.02,3.49-.78,4.69-3.73,9.37-7.49,14-11.3,10.19-8.39,6.72-7.71,16.76.21,4.71,3.71,9.27,7.61,13.92,11.39.91.74,1.96,1.48,3.16.69.46-.31.66-1.01,1.01-1.58Z"/>
  <path d="m73.29,67.02c0,2.86-.08,4.53.02,6.19.21,3.49-.61,5.68-4.85,5.66-3.99-.02-5.39-1.76-5.21-5.43.06-1.33,0-2.66,0-3.99-.02-7.53-2.73-9.55-10.15-7.76-2.29.55-2.81,2.04-2.83,4.03-.03,2.99-.1,5.98-.05,8.97.06,3.38-1.88,4.14-4.81,4.13-2.98,0-5.34-.39-5.28-4.18.08-4.32.04-8.64.03-12.96,0-2.18,1.02-3.76,2.66-5.1,3.74-3.04,7.5-6.05,11.12-9.24,2.03-1.79,3.68-1.73,5.63.05,1.96,1.79,3.97,3.59,6.19,5.02,5.84,3.75,9.27,8.52,7.55,14.61Z"/>
</svg>