<?xml version="1.0" encoding="UTF-8"?>
<svg id="Capa_1" data-name="Capa 1" xmlns="http://www.w3.org/2000/svg" viewBox="0 0 113.34 113.74">
  <path d="m56.36,94.9c-7.83,0-15.66-.07-23.49.03-3.98.05-5.81-1.65-5.78-5.67.08-9.16.08-18.33-.01-27.49-.03-2.92,1.06-5.1,3.28-6.91,7.48-6.12,14.95-12.24,22.34-18.46,2.78-2.34,5.22-2.3,7.99.02,7.15,5.99,14.36,11.91,21.64,17.75,2.82,2.27,4.1,4.95,4.02,8.62-.17,8.33,0,16.66-.06,24.99-.05,6.13-1.1,7.1-7.43,7.13-7.5.03-15,0-22.49,0v-.02Zm22.63-20.78c0-3.33-.05-6.66.02-9.98.05-2.17-.75-3.79-2.45-5.16-5.69-4.6-11.35-9.24-16.94-13.97-2.18-1.84-3.95-1.76-6.11.1-5.43,4.65-10.99,9.16-16.53,13.68-1.65,1.35-2.58,2.95-2.56,5.14.04,6.49,0,12.98.02,19.47,0,1.67.07,3.27,2.14,4.01,5.96,2.12,9.59-.3,9.63-6.55,0-1.16,0-2.33,0-3.49,0-14.86,0-14.79,15.12-14,3.92.2,5.79,1.89,5.86,5.79.08,4.31-.15,8.63-.17,12.94-.02,5.63,3.17,5.42,7.13,5.57,4.76.18,5.03-2.55,4.87-6.06-.12-2.49-.02-4.99-.02-7.49Zm-19.73,5.25c0-1.83.06-3.66-.02-5.48-.08-1.96-1.08-3.1-3.16-2.99-1.93.1-2.51,1.38-2.53,3.05-.02,3.49-.02,6.98,0,10.48.02,1.69.66,2.92,2.58,2.99,2.11.08,3.03-1.11,3.11-3.05.07-1.66.01-3.32,0-4.99Z"/>
  <path d="m22.15,56.2c-2.91.08-4.66-2.81-3.24-5.28.64-1.11,1.72-2.03,2.74-2.86,10.3-8.46,20.69-16.81,30.91-25.37,2.81-2.35,5.15-2.53,7.94-.21,10.63,8.85,21.31,17.63,31.97,26.44,1.95,1.61,3.53,3.5,1.57,5.92-1.99,2.46-4.16,1.13-6.13-.36-.8-.6-1.57-1.23-2.35-1.87-8.39-6.85-16.9-13.56-25.09-20.63-2.87-2.47-4.76-2.46-7.57-.07-8.64,7.33-17.47,14.43-26.27,21.57-1.4,1.13-2.71,2.52-4.48,2.72Z"/>
</svg>