<?xml version="1.0" encoding="UTF-8"?>
<svg id="Capa_1" data-name="Capa 1" xmlns="http://www.w3.org/2000/svg" viewBox="0 0 113.34 113.74">
  <defs>
    <style>
      .cls-1 {
        fill: #fff;
      }

      .cls-2 {
        fill: #010101;
      }
    </style>
  </defs>
  <circle class="cls-2" cx="57.8" cy="58.28" r="37.98"/>
  <g>
    <path class="cls-1" d="m57.8,38.67c6.39,0,7.14.02,9.66.14,2.33.11,3.6.5,4.44.82,1.12.43,1.91.95,2.75,1.79.84.84,1.36,1.63,1.79,2.75.33.84.72,2.11.82,4.44.12,2.52.14,3.28.14,9.66s-.02,7.14-.14,9.66c-.11,2.33-.5,3.6-.82,4.44-.43,1.12-.95,1.91-1.79,2.75-.84.84-1.63,1.36-2.75,1.79-.84.33-2.11.72-4.44.82-2.52.12-3.28.14-9.66.14s-7.14-.02-9.66-.14c-2.33-.11-3.6-.5-4.44-.82-1.12-.43-1.91-.95-2.75-1.79-.84-.84-1.36-1.63-1.79-2.75-.33-.84-.72-2.11-.82-4.44-.12-2.52-.14-3.28-.14-9.66s.02-7.14.14-9.66c.11-2.33.5-3.6.82-4.44.43-1.12.95-1.91,1.79-2.75.84-.84,1.63-1.36,2.75-1.79.84-.33,2.11-.72,4.44-.82,2.52-.12,3.28-.14,9.66-.14m0-4.31c-6.5,0-7.31.03-9.86.14-2.55.12-4.28.52-5.81,1.11-1.57.61-2.91,1.43-4.24,2.76-1.33,1.33-2.15,2.66-2.76,4.24-.59,1.52-1,3.26-1.11,5.81-.12,2.55-.14,3.37-.14,9.86s.03,7.31.14,9.86c.12,2.55.52,4.28,1.11,5.81.61,1.57,1.43,2.91,2.76,4.24,1.33,1.33,2.66,2.15,4.24,2.76,1.52.59,3.26,1,5.81,1.11,2.55.12,3.37.14,9.86.14s7.31-.03,9.86-.14c2.55-.12,4.28-.52,5.81-1.11,1.57-.61,2.91-1.43,4.24-2.76,1.33-1.33,2.15-2.66,2.76-4.24.59-1.52,1-3.26,1.11-5.81.12-2.55.14-3.37.14-9.86s-.03-7.31-.14-9.86c-.12-2.55-.52-4.28-1.11-5.81-.61-1.57-1.43-2.91-2.76-4.24-1.33-1.33-2.66-2.15-4.24-2.76-1.52-.59-3.26-1-5.81-1.11-2.55-.12-3.37-.14-9.86-.14h0Z"/>
    <path class="cls-1" d="m57.8,46c-6.78,0-12.28,5.5-12.28,12.28s5.5,12.28,12.28,12.28,12.28-5.5,12.28-12.28-5.5-12.28-12.28-12.28Zm0,20.25c-4.4,0-7.97-3.57-7.97-7.97s3.57-7.97,7.97-7.97,7.97,3.57,7.97,7.97-3.57,7.97-7.97,7.97Z"/>
    <circle class="cls-1" cx="70.56" cy="45.52" r="2.87"/>
  </g>
</svg>