<?xml version="1.0" encoding="UTF-8"?>
<svg id="Capa_1" data-name="Capa 1" xmlns="http://www.w3.org/2000/svg" viewBox="0 0 113.34 113.74">
  <defs>
    <style>
      .cls-1 {
        fill: #fff;
      }

      .cls-2 {
        fill: #010101;
      }
    </style>
  </defs>
  <circle class="cls-2" cx="56.67" cy="60.34" r="37.98"/>
  <g id="FULL_COLOR_ICON" data-name="FULL COLOR ICON">
    <g id="TYPE_A" data-name="TYPE A">
      <g>
        <path class="cls-1" d="m82.43,56.69c0-11.58-11.61-21.01-25.89-21.01s-25.88,9.42-25.88,21.01c0,10.38,9.21,19.08,21.65,20.72.84.18,1.99.56,2.28,1.28.26.65.17,1.68.08,2.34,0,0-.3,1.83-.37,2.22-.11.65-.52,2.56,2.24,1.4,2.76-1.16,14.91-8.78,20.34-15.03h0c3.75-4.11,5.55-8.29,5.55-12.92"/>
        <g>
          <path class="cls-2" d="m51.29,51.09h-1.82c-.28,0-.5.23-.5.5v11.28c0,.28.23.5.5.5h1.82c.28,0,.5-.23.5-.5v-11.28c0-.28-.23-.5-.5-.5"/>
          <path class="cls-2" d="m63.79,51.09h-1.82c-.28,0-.5.23-.5.5v6.7l-5.17-6.98s-.03-.03-.04-.05c0,0,0,0,0,0,0-.01-.02-.02-.03-.03,0,0,0,0,0,0,0,0-.02-.02-.03-.02,0,0,0,0-.01-.01,0,0-.02-.01-.03-.02,0,0,0,0-.02,0,0,0-.02-.01-.03-.02,0,0-.01,0-.02,0,0,0-.02,0-.03-.01,0,0-.01,0-.02,0,0,0-.02,0-.03,0,0,0-.01,0-.02,0,0,0-.02,0-.03,0,0,0-.01,0-.02,0,0,0-.02,0-.03,0,0,0-.02,0-.03,0,0,0-.01,0-.02,0h-1.82c-.28,0-.5.23-.5.5v11.28c0,.28.23.5.5.5h1.82c.28,0,.5-.23.5-.5v-6.7l5.17,6.99c.04.05.08.09.13.12,0,0,0,0,0,0,.01,0,.02.01.03.02,0,0,0,0,.01,0,0,0,.02,0,.02.01,0,0,.02,0,.02.01,0,0,0,0,.02,0,.01,0,.02,0,.03.01,0,0,0,0,0,0,.04.01.08.02.13.02h1.82c.28,0,.5-.23.5-.5v-11.28c0-.28-.23-.5-.5-.5"/>
          <path class="cls-2" d="m46.91,60.55h-4.93v-8.96c0-.28-.23-.5-.5-.5h-1.82c-.28,0-.5.23-.5.5v11.28h0c0,.14.05.26.14.35,0,0,0,0,0,0,0,0,0,0,0,0,.09.09.21.14.35.14h7.25c.28,0,.5-.23.5-.5v-1.82c0-.28-.23-.5-.5-.5"/>
          <path class="cls-2" d="m73.81,53.91c.28,0,.5-.23.5-.5v-1.82c0-.28-.23-.5-.5-.5h-7.25c-.14,0-.26.05-.35.14,0,0,0,0,0,0,0,0,0,0,0,0-.09.09-.14.21-.14.35h0v11.28h0c0,.14.05.26.14.35,0,0,0,0,0,0,0,0,0,0,0,0,.09.09.21.14.35.14h7.25c.28,0,.5-.23.5-.5v-1.82c0-.28-.23-.5-.5-.5h-4.93v-1.91h4.93c.28,0,.5-.23.5-.5v-1.82c0-.28-.23-.5-.5-.5h-4.93v-1.91h4.93Z"/>
        </g>
      </g>
    </g>
  </g>
</svg>