<?xml version="1.0" encoding="UTF-8"?>
<svg id="Capa_1" data-name="Capa 1" xmlns="http://www.w3.org/2000/svg" viewBox="0 0 113.34 113.74">
  <defs>
    <style>
      .cls-1 {
        fill: #fff;
      }

      .cls-2 {
        fill: #010101;
      }
    </style>
  </defs>
  <circle class="cls-2" cx="56.67" cy="58.85" r="37.98"/>
  <g>
    <path class="cls-1" d="m59.61,53.67c.62-.7,1.14-1.41,1.78-2.02,1.97-1.86,4.3-2.79,7.02-2.77,1.49.01,2.97.12,4.41.54,3.3.95,5.21,3.22,6.13,6.44.69,2.42.81,4.89.82,7.38,0,5.25-.02,10.49,0,15.74,0,.49-.14.62-.62.62-2.7-.02-5.41-.02-8.11,0-.48,0-.58-.14-.58-.59.02-4.99.02-9.99,0-14.98,0-1.25-.08-2.5-.43-3.72-.65-2.24-2.25-3.38-4.6-3.26-3.21.17-4.87,1.76-5.28,5.02-.1.78-.14,1.56-.14,2.34,0,4.86,0,9.71.01,14.57,0,.48-.12.63-.61.62-2.72-.02-5.45-.02-8.17,0-.44,0-.56-.11-.56-.56.01-9.61.01-19.23,0-28.84,0-.48.16-.59.61-.58,2.59.02,5.17.02,7.76,0,.48,0,.6.15.59.6-.03,1.15,0,2.3,0,3.45Z"/>
    <path class="cls-1" d="m44.8,64.65c0,4.76,0,9.51.01,14.27,0,.53-.13.69-.68.68-2.7-.03-5.4-.02-8.11,0-.43,0-.56-.11-.56-.55.01-9.63.01-19.26,0-28.89,0-.4.1-.54.52-.54,2.74.02,5.48.02,8.22,0,.53,0,.6.2.6.65-.01,4.79,0,9.59,0,14.38Z"/>
    <path class="cls-1" d="m45.55,40.08c0,2.99-2.42,5.42-5.4,5.42-2.94,0-5.39-2.43-5.39-5.37,0-2.97,2.43-5.42,5.41-5.42,2.95,0,5.39,2.43,5.39,5.37Z"/>
  </g>
</svg>