<?xml version="1.0" encoding="UTF-8"?>
<svg id="Capa_1" data-name="Capa 1" xmlns="http://www.w3.org/2000/svg" viewBox="0 0 113.34 113.74">
  <path d="m92.47,61.12c0,6.83.1,13.66-.02,20.49-.16,9.04-5.93,15.15-15.01,15.31-13.65.24-27.32.25-40.97-.02-9.7-.2-15.46-6.28-15.54-15.87-.1-13.49-.12-26.98,0-40.47.09-9.31,6.01-15.44,15.3-15.59,13.65-.21,27.32-.22,40.97.02,9.26.16,15.1,6.39,15.23,15.66.1,6.83.02,13.66.02,20.49Zm-35.75-20.11c-6.66,0-13.32-.07-19.98.02-6.18.09-9.07,2.68-9.22,8.67-.2,8.15-.2,16.32,0,24.47.14,5.64,3.21,8.58,8.83,8.62,13.48.1,26.97.1,40.45,0,5.68-.05,8.29-2.63,8.38-8.26.14-8.49.13-16.98-.01-25.47-.09-5.57-2.42-7.88-7.98-8-6.82-.15-13.65-.04-20.47-.04Z"/>
  <path d="m57.17,45.69c5.15,0,10.3-.02,15.46.02.94,0,2.24-.2,2.46,1.05.11.63-.49,1.55-1.03,2.09-4.9,4.97-9.84,9.9-14.81,14.8-1.98,1.95-3.87,1.38-5.64-.4-4.71-4.7-9.43-9.37-14.12-14.08-.68-.68-1.7-1.39-1.31-2.48.51-1.43,1.96-.99,3.04-1,5.32-.06,10.64-.03,15.96-.03v.02Z"/>
  <path d="m56.09,78.13c-5.16,0-10.32.03-15.48-.03-1.07-.01-2.59.52-3.07-.9-.44-1.31.96-1.97,1.72-2.78,1.37-1.46,2.92-2.75,4.2-4.27,2.74-3.29,5.27-4.9,9.38-1.44,2.84,2.38,6.46,1.28,9.18-1.06,2.13-1.83,3.71-1.64,5.52.27,2.06,2.18,4.26,4.21,6.33,6.37.76.79,2.01,1.59,1.34,2.92-.63,1.25-2.05.89-3.15.9-5.33.05-10.65.02-15.98.01Z"/>
  <path d="m81.08,62.26c0,2.81.09,5.62-.03,8.43-.1,2.41-1.1,3.07-2.98,1.15-.46-.47-.93-.94-1.39-1.41-10.53-10.94-10.62-6.25.76-18.19.67-.7,1.43-1.71,2.46-1.38,1.34.44,1.17,1.86,1.19,2.98.04,2.81.01,5.62.01,8.43,0,0-.02,0-.03,0Z"/>
  <path d="m32.09,61.11c.48-2.93-1.66-8.55,1.04-9.62,3.41-1.35,5.42,4.28,8.41,6.44,3.36,2.43,3.4,4.83.09,7.49-2.06,1.66-3.77,3.75-5.7,5.59-.81.77-1.54,2.18-2.79,1.74-1.61-.57-.99-2.28-1.03-3.52-.1-2.49-.03-4.99-.03-8.12Z"/>
</svg>