<?xml version="1.0" encoding="UTF-8"?>
<svg id="Capa_1" data-name="Capa 1" xmlns="http://www.w3.org/2000/svg" viewBox="0 0 113.34 113.74">
  <path d="m56.59,83.09c-7.82,0-15.65.09-23.47-.03-7.62-.12-11.42-3.82-11.54-11.37-.15-9.65-.16-19.31.02-28.96.13-7.02,3.96-10.87,10.9-10.93,16.31-.13,32.62-.13,48.93,0,6.49.05,10.24,3.86,10.33,10.32.14,10.15.14,20.31,0,30.46-.09,6.71-3.88,10.36-10.71,10.47-8.15.12-16.31.03-24.47.04Zm22.72-43.62h-44.22c7.02,7.15,13.35,13.68,19.79,20.1,1.67,1.67,3.45.69,4.85-.68,6.27-6.17,12.49-12.39,19.58-19.42Zm-1.35,36.09c.32-.45.63-.9.95-1.35-3.52-3.24-7.06-6.46-10.55-9.73-1.51-1.41-2.73-1.11-4.35.06-6.11,4.42-8.27,4.42-14.22.24-1.31-.92-2.54-1.92-3.93-.52-3.57,3.6-7.03,7.3-10.85,11.3h42.95Zm-48.88-6.18c.51.4,1.01.8,1.52,1.21,3.34-3.82,6.65-7.67,10.02-11.45,1.09-1.22,1.21-2.3,0-3.44-3.67-3.47-6.85-7.49-11.54-10.88v24.56Zm55.51-24.85c-15.58,15.62-15.24,10-3.7,22.26.23.24.44.52.72.68.68.4,1.44,1.09,2.09,1.01,1.01-.12.88-1.28.88-2.06.03-6.93.02-13.86.02-21.9Z"/>
</svg>