<?xml version="1.0" encoding="UTF-8"?>
<svg id="Capa_1" data-name="Capa 1" xmlns="http://www.w3.org/2000/svg" viewBox="0 0 113.34 113.74">
  <defs>
    <style>
      .cls-1 {
        fill: #fff;
      }

      .cls-1, .cls-2 {
        fill-rule: evenodd;
      }

      .cls-2, .cls-3 {
        fill: #010101;
      }
    </style>
  </defs>
  <circle class="cls-3" cx="49.99" cy="58.28" r="37.98"/>
  <g id="logo">
    <path id="bubble" class="cls-1" d="m49.99,30.15c-16.17,0-28.7,11.84-28.7,27.84,0,8.37,3.43,15.6,9.01,20.59.47.42.75,1.01.77,1.64l.16,5.1c.05,1.63,1.73,2.69,3.22,2.03l5.7-2.51c.48-.21,1.02-.25,1.53-.11,2.62.72,5.4,1.1,8.31,1.1,16.17,0,28.7-11.84,28.7-27.84s-12.53-27.84-28.7-27.84Z"/>
    <path id="bolt" class="cls-2" d="m32.76,66.12l8.43-13.37c1.34-2.13,4.21-2.66,6.22-1.15l6.7,5.03c.62.46,1.46.46,2.07,0l9.06-6.87c1.21-.92,2.79.53,1.98,1.81l-8.43,13.37c-1.34,2.13-4.21,2.66-6.22,1.15l-6.71-5.03c-.62-.46-1.46-.46-2.07,0l-9.06,6.87c-1.21.92-2.79-.53-1.98-1.81Z"/>
  </g>
</svg>