<?xml version="1.0" encoding="UTF-8"?>
<svg id="Capa_1" data-name="Capa 1" xmlns="http://www.w3.org/2000/svg" viewBox="0 0 113.34 113.74">
  <path d="m88.24,59.7c0,6.5.05,12.99-.01,19.49-.09,9.52-5.43,15.76-14.81,16.03-13.98.4-27.99.4-41.97,0-9.09-.26-14.68-6.54-14.75-15.61-.11-13.49-.12-26.99,0-40.48.08-9.66,5.95-15.64,15.6-15.76,13.49-.17,26.99-.14,40.48-.03,9.28.08,15.3,6.14,15.44,15.38.1,6.99.02,13.99.03,20.99Zm-23.22,22.56c4.73-.17,7.72-3.36,9.77-6.88,1.88-3.23-2.08-4.7-3.7-6.78-1.02-1.3-2.36-2.35-3.48-3.57-2.08-2.26-4.19-3.26-6.77-.65-3.08,3.11-5.36.44-7.09-1.52-2.98-3.39-8.38-5.32-7.44-11.3.04-.28.38-.55.62-.77,2.46-2.26,1.73-4.42-.26-6.46-2.1-2.14-4.27-4.2-6.41-6.29-1.16-1.14-2.41-1.65-4.05-.95-5.47,2.34-8.04,8.83-5.36,14.13,6.62,13.03,16.65,22.73,29.4,29.7,1.47.8,3.02,1.41,4.77,1.35Z"/>
  <path d="m38.06,40.62c2.58.96,4.25,3.33,6.11,5.4,1.58,1.75.17,3.07-1,4.26-1.7,1.72-.91,3.32.07,4.96,3.39,5.7,8.02,10.14,13.68,13.57,1.58.96,3,1.37,4.47-.14,4.04-4.16,5.64.49,7.88,2.32,1.45,1.18,3.42,2.56,1.33,4.91-2.25,2.53-4.52,4.28-8.19,2.38-12.37-6.39-21.71-15.82-28.28-27.99-2.09-3.88.29-9.61,3.92-9.65Z"/>
</svg>