<?xml version="1.0" encoding="UTF-8"?>
<svg id="Capa_1" data-name="Capa 1" xmlns="http://www.w3.org/2000/svg" viewBox="0 0 113.34 113.74">
  <path d="m24.19,40.1c.04-4.59,6.19-13.2,10.58-14.85,1.99-.75,3.61-.08,5,1.29,3.55,3.51,7.09,7.03,10.58,10.6,2.63,2.69,3.1,5.57-.03,8.17-2.86,2.38-2.47,4.48-.36,7.19,3.41,4.37,7.26,8.21,11.66,11.56,2.23,1.69,4.05,1.96,6.03-.28,3.49-3.95,6.68-3.24,10,.47,3.1,3.47,6.55,6.63,9.84,9.93,1.52,1.53,2.25,3.18,1.15,5.37-4.84,9.61-14.03,12.57-23.39,7.35-16.4-9.15-29.03-22.12-38.36-38.36-2.18-3.79-2.72-5.77-2.7-8.45Zm6.21.68c.2.7.33,1.91.85,2.91,9.18,17.45,22.44,30.81,40.15,39.61,4.39,2.18,6.9-1.12,9.2-3.88,2.4-2.87-1.14-3.87-2.3-5.55-.65-.94-1.7-1.6-2.42-2.5-2.24-2.81-4.54-3.04-7.05-.38-1.68,1.78-3.46,2.26-5.77.94-9.01-5.17-16.18-12.15-21.24-21.24-.92-1.65-1.84-3.59-.02-4.99,5.49-4.23,1.6-6.95-1.43-9.76-1.49-1.38-2.74-4.05-5.27-2.75-2.72,1.4-4.65,3.76-4.7,7.59Z"/>
</svg>