<?xml version="1.0" encoding="UTF-8"?>
<svg id="Capa_1" data-name="Capa 1" xmlns="http://www.w3.org/2000/svg" viewBox="0 0 113.34 113.74">
  <path d="m92.68,59.38c0,19.41-16.13,35.73-35.55,35.95-19.64.22-36.75-16.76-36.47-36.19.29-19.77,16.59-35.88,36.27-35.83,19.91.05,35.74,16.03,35.75,36.07Zm-25.87,18.03c4.06.03,9.28-4.74,7.61-7.12-1.97-2.82-4.65-5.21-7.29-7.47-1.88-1.61-3.28.68-4.87,1.3-1.27.49-2.28-.21-3.22-.88-2.59-1.85-4.78-4.14-6.73-6.65-.72-.92-1.69-2.23-.8-3.15,4.46-4.66-.35-6.6-2.66-9.09-1.34-1.45-2.65-4.21-5.18-2.85-2.6,1.41-4.84,3.57-5.11,6.95-.18,2.27.6,4.26,1.7,6.16,5.1,8.86,12.1,15.83,20.91,20.99,1.74,1.02,3.56,1.83,5.64,1.8Z"/>
  <path d="m45.05,44.51c2.68.17,5.79,5.02,4.33,7.27-1.39,2.16-.75,3.66.41,5.42,2.5,3.82,5.87,6.73,9.59,9.29,1.28.88,2.7,1.67,4.05.33,3.74-3.68,5.02.59,7.05,2.16,1.61,1.25,1.54,2.69.1,4.23-2.19,2.35-4.47,2.39-7.14.88-9.32-5.28-16.75-12.44-21.71-21.99-1.76-3.39.29-7.78,3.32-7.59Z"/>
</svg>