<?xml version="1.0" encoding="UTF-8"?>
<svg id="Capa_1" data-name="Capa 1" xmlns="http://www.w3.org/2000/svg" viewBox="0 0 113.34 113.74">
  <defs>
    <style>
      .cls-1 {
        fill: #010101;
      }
    </style>
  </defs>
  <path class="cls-1" d="m53.82,20.8c-20.99,0-38.01,17.02-38.01,38.01,0,16.11,10.01,29.88,24.15,35.42-.34-3-.63-7.63.13-10.92.69-2.97,4.44-18.9,4.44-18.9,0,0-1.13-2.28-1.13-5.63,0-5.29,3.07-9.23,6.88-9.23,3.25,0,4.82,2.44,4.82,5.35,0,3.25-2.06,8.13-3.16,12.67-.91,3.79,1.91,6.88,5.63,6.88,6.76,0,11.95-7.13,11.95-17.4,0-9.1-6.54-15.46-15.89-15.46-10.83,0-17.18,8.1-17.18,16.49,0,3.25,1.25,6.76,2.82,8.67.31.38.34.72.25,1.1-.28,1.19-.94,3.79-1.06,4.32-.16.69-.56.84-1.28.5-4.76-2.22-7.73-9.14-7.73-14.74,0-11.98,8.7-23,25.12-23,13.17,0,23.43,9.39,23.43,21.96s-8.26,23.65-19.71,23.65c-3.85,0-7.48-2-8.7-4.38,0,0-1.91,7.26-2.38,9.04-.84,3.32-3.16,7.45-4.72,9.98,3.57,1.1,7.32,1.69,11.26,1.69,20.99,0,38.01-17.02,38.01-38.01.06-21.06-16.96-38.08-37.95-38.08Z"/>
</svg>