<?xml version="1.0" encoding="UTF-8"?>
<svg id="Capa_1" data-name="Capa 1" xmlns="http://www.w3.org/2000/svg" viewBox="0 0 113.34 113.74">
  <defs>
    <style>
      .cls-1 {
        fill: #fff;
      }

      .cls-2 {
        fill: #010101;
      }
    </style>
  </defs>
  <circle class="cls-2" cx="56.67" cy="59.06" r="37.98"/>
  <path class="cls-1" d="m81.99,59.06c0-3.06-2.48-5.54-5.54-5.54-1.49,0-2.85.59-3.84,1.55-3.79-2.73-9-4.5-14.81-4.7l2.52-11.87,8.24,1.75c.1,2.1,1.82,3.77,3.94,3.77s3.96-1.77,3.96-3.96-1.77-3.96-3.96-3.96c-1.55,0-2.89.9-3.53,2.21l-9.21-1.96c-.26-.06-.52,0-.74.14-.22.14-.37.37-.43.62l-2.82,13.25c-5.9.16-11.2,1.93-15.03,4.69-1-.95-2.34-1.54-3.83-1.54-3.06,0-5.54,2.48-5.54,5.54,0,2.25,1.34,4.18,3.27,5.05-.09.55-.13,1.11-.13,1.68,0,8.52,9.92,15.43,22.16,15.43s22.16-6.91,22.16-15.43c0-.56-.05-1.12-.13-1.66,1.94-.86,3.3-2.8,3.3-5.06Zm-37.98,3.96c0-2.18,1.78-3.96,3.96-3.96s3.95,1.78,3.95,3.96-1.77,3.96-3.95,3.96-3.96-1.77-3.96-3.96Zm22.06,10.45c-2.7,2.7-7.88,2.91-9.4,2.91s-6.7-.21-9.39-2.91c-.4-.4-.4-1.05,0-1.45.4-.4,1.05-.4,1.45,0,1.7,1.7,5.34,2.31,7.94,2.31s6.24-.6,7.95-2.31c.4-.4,1.05-.4,1.45,0,.4.4.4,1.05,0,1.45Zm-.7-6.5c-2.18,0-3.96-1.77-3.96-3.96s1.77-3.96,3.96-3.96,3.96,1.78,3.96,3.96-1.77,3.96-3.96,3.96Z"/>
</svg>