<?xml version="1.0" encoding="UTF-8"?>
<svg id="Capa_1" data-name="Capa 1" xmlns="http://www.w3.org/2000/svg" xmlns:xlink="http://www.w3.org/1999/xlink" viewBox="0 0 113.34 113.74">
  <defs>
    <style>
      .cls-1 {
        fill: #fff;
        fill-rule: evenodd;
      }

      .cls-2 {
        fill: url(#linear-gradient);
      }

      .cls-3 {
        fill: #010101;
      }
    </style>
    <linearGradient id="linear-gradient" x1="82.24" y1="68.77" x2="82.24" y2="68.77" gradientUnits="userSpaceOnUse">
      <stop offset="0" stop-color="#00aae2"/>
      <stop offset="1" stop-color="#007dc5"/>
    </linearGradient>
  </defs>
  <circle class="cls-3" cx="56.67" cy="59.06" r="37.98"/>
  <g>
    <polygon class="cls-2" points="82.24 68.77 82.24 68.77 82.24 68.77 82.24 68.77"/>
    <path class="cls-1" d="m82.23,68.78s0,0,0,0c0-.06-.01-.13-.02-.19-.01-.14-.02-.27-.04-.41-.02-.17-.04-.33-.06-.5,0-.06-.02-.11-.02-.17-.28-1.83-.88-3.54-1.75-5.08.15-1.07.23-2.15.23-3.26,0-13.16-10.7-23.82-23.9-23.82-.86,0-1.71.05-2.55.14-.03-.02-.07-.04-.1-.07h0c-.07-.04-.13-.08-.2-.12-.05-.03-.1-.06-.15-.09-.18-.11-.37-.21-.56-.3-.06-.03-.12-.06-.17-.09-.02-.01-.04-.03-.07-.04,0,0,0,0,0,0-.16-.08-.33-.16-.5-.23-.06-.03-.12-.06-.18-.08-.12-.05-.24-.1-.36-.15,0,0,0,0-.01,0-.08-.03-.16-.06-.24-.09-.04-.01-.08-.03-.12-.05,0,0,0,0,0,0-.67-.25-1.36-.46-2.08-.61-.02,0-.04,0-.06-.01-.39-.08-.78-.15-1.18-.2-.04,0-.07-.01-.11-.02,0,0,0,0,0,0-.61-.08-1.24-.12-1.87-.12-8.33,0-15.09,6.73-15.09,15.04,0,.43.02.86.06,1.28,0,0,0,0,0,0,0,.04,0,.08.01.12.01.12.02.24.04.36.02.16.04.32.06.48,0,.04.01.08.02.13.28,1.84.9,3.56,1.77,5.1-.16,1.12-.25,2.27-.25,3.44,0,13.16,10.7,23.82,23.9,23.82.96,0,1.91-.06,2.85-.17,0,0,.02.01.03.02.04.02.07.04.11.06.03.02.06.04.1.06.04.02.08.05.12.07.29.16.6.32.9.46.01,0,.02.01.04.02,0,0,0,0,0,0,.19.09.38.17.58.26.05.02.1.04.16.06.2.08.4.16.61.23.03.01.07.03.1.04,0,0,0,0,0,0,.26.09.53.17.8.25.03,0,.05.02.08.02.18.05.37.1.55.14.05.01.09.02.14.03.17.04.35.08.52.11.06.01.13.02.19.03.16.03.33.06.49.08.08.01.17.02.25.03.15.02.3.04.45.05.02,0,.04,0,.06,0,0,0,0,0,0,0,.45.04.9.06,1.36.06,8.34,0,15.09-6.74,15.09-15.04,0-.36-.02-.72-.04-1.07Zm-17.55.5c-.88,1.19-2.09,2.09-3.49,2.59-1.68.6-3.46.89-5.24.85-2.45.09-4.9-.38-7.15-1.35-.58-.26-1.08-.65-1.47-1.14-.32-.45-.49-1-.48-1.56-.03-.59.2-1.17.63-1.58.45-.39,1.03-.6,1.62-.57.66,0,1.31.18,1.89.49.73.36,1.3.64,1.72.82.48.2.97.36,1.48.47.63.14,1.26.2,1.9.2,1.13.08,2.26-.22,3.2-.85.71-.56,1.12-1.43,1.08-2.34,0-.63-.24-1.24-.68-1.71-.57-.59-1.25-1.08-1.99-1.45-.88-.46-2.11-1.02-3.7-1.69-1.42-.57-2.78-1.27-4.06-2.11-.97-.64-1.77-1.49-2.35-2.48-.56-1.05-.84-2.24-.81-3.43-.04-1.52.47-3,1.45-4.16,1.02-1.16,2.33-2.04,3.79-2.53,1.59-.56,3.27-.85,4.96-.84,1.11-.01,2.21.07,3.3.25.78.12,1.55.32,2.29.59.68.23,1.3.62,1.79,1.14.37.43.56.98.55,1.54.03.59-.18,1.17-.58,1.6-.38.4-.91.62-1.46.61-.38,0-.75-.09-1.09-.24-.84-.38-1.71-.69-2.59-.95-.81-.21-1.65-.32-2.49-.31-1.1-.04-2.18.24-3.12.8-.81.49-1.29,1.39-1.25,2.33,0,.61.23,1.2.65,1.64.5.52,1.09.94,1.75,1.25.73.36,1.82.84,3.27,1.44.16.05.32.11.47.19,1.42.56,2.77,1.26,4.05,2.08,1.01.66,1.86,1.53,2.49,2.56.62,1.08.93,2.31.9,3.56.05,1.53-.38,3.03-1.25,4.29Z"/>
  </g>
</svg>