<?xml version="1.0" encoding="UTF-8"?>
<svg id="Capa_1" data-name="Capa 1" xmlns="http://www.w3.org/2000/svg" viewBox="0 0 113.34 113.74">
  <defs>
    <style>
      .cls-1 {
        fill: #fff;
      }

      .cls-2 {
        fill: #010101;
      }
    </style>
  </defs>
  <circle class="cls-2" cx="56.67" cy="60.34" r="37.98"/>
  <path class="cls-1" d="m69.75,51.38c-.01,1.04-.06,2.09-.14,3.13-.01.18-.02.36-.02.53,0,.39.22.54.6.51.14-.01.28-.05.41-.1.38-.13.76-.27,1.13-.42.63-.24,1.26-.48,1.92-.63.44-.1.89-.16,1.34-.05,1.02.23,1.55,1.25,1.16,2.23-.1.26-.26.48-.44.68-.26.29-.56.54-.89.76-.38.26-.77.51-1.16.77-.64.42-1.29.84-1.93,1.27-.27.18-.53.37-.78.56-.14.11-.27.23-.39.36-.24.27-.35.59-.33.95.02.34.08.68.18,1.01.31,1.07.77,2.06,1.34,3.01,1.05,1.75,2.4,3.23,3.98,4.52,1.34,1.09,2.8,1.99,4.35,2.75.14.07.27.14.41.22.1.06.19.14.26.24.1.15.12.3.03.47-.08.14-.18.25-.3.34-.17.14-.37.26-.57.36-.88.48-1.81.82-2.78,1.08-.41.11-.82.23-1.23.35-.28.08-.55.21-.82.35-.44.23-.7.6-.79,1.08-.05.27-.08.54-.13.81-.12.68-.36.92-1.03,1.04-.23.04-.47.06-.71.08-.59.03-1.19.05-1.78.08-1.34.08-2.66.28-3.94.7-.54.18-1.06.41-1.56.69-.52.3-1.04.61-1.56.93-.82.5-1.66.97-2.56,1.32-1,.39-2.04.62-3.11.72-.9.08-1.8.07-2.7-.03-1.34-.15-2.62-.54-3.82-1.16-.56-.29-1.1-.61-1.64-.93-.39-.24-.79-.48-1.19-.72-.95-.56-1.97-.93-3.04-1.16-.98-.21-1.96-.33-2.96-.37-.52-.02-1.04-.04-1.56-.07-.3-.02-.59-.05-.88-.13-.4-.11-.66-.35-.75-.77-.05-.23-.08-.47-.12-.7,0-.05-.01-.09-.02-.14-.09-.62-.39-1.08-.98-1.34-.36-.16-.72-.29-1.1-.4-.65-.18-1.31-.34-1.94-.57-.56-.2-1.1-.44-1.62-.72-.16-.08-.31-.18-.45-.28-.1-.07-.19-.14-.27-.23-.3-.32-.28-.6.07-.87.17-.13.37-.22.56-.31,1.36-.66,2.64-1.44,3.84-2.37,1.71-1.31,3.17-2.86,4.3-4.7.6-.98,1.1-2.02,1.42-3.13.1-.35.17-.71.19-1.08.01-.37-.11-.67-.35-.94-.14-.16-.31-.29-.48-.42-.49-.37-1.01-.71-1.52-1.05-.65-.43-1.31-.85-1.97-1.28-.33-.21-.64-.45-.93-.72-.21-.2-.39-.41-.54-.66-.31-.52-.33-1.05-.1-1.6.16-.38.44-.64.82-.79.42-.16.86-.18,1.3-.11.52.09,1.01.24,1.5.42.5.18,1,.38,1.5.56.23.09.47.17.71.21.06,0,.12.03.18.02.29,0,.52-.1.52-.49,0-.32-.02-.64-.04-.96-.12-1.73-.16-3.46-.09-5.19.05-1.1.16-2.2.41-3.28.34-1.5.97-2.87,1.9-4.1,1.72-2.27,3.99-3.71,6.71-4.48,1.49-.42,3-.56,4.54-.51,1.63.05,3.2.35,4.72.94,1.44.56,2.75,1.33,3.89,2.39,1.43,1.33,2.53,2.88,3.13,4.76.27.85.44,1.72.55,2.6.16,1.37.17,2.75.16,4.12Z"/>
</svg>