<?xml version="1.0" encoding="UTF-8"?>
<svg id="Capa_1" data-name="Capa 1" xmlns="http://www.w3.org/2000/svg" viewBox="0 0 113.34 113.74">
  <defs>
    <style>
      .cls-1 {
        fill: #fff;
      }

      .cls-2 {
        fill: #010101;
      }
    </style>
  </defs>
  <circle class="cls-2" cx="56.67" cy="57.97" r="37.98"/>
  <path class="cls-1" d="m25.83,57.94l-.38,3.46.38,3.46c0,.19.19.19.19.19.19,0,.19-.19.19-.19l.58-3.46-.58-3.46c0-.19-.19-.19-.19-.19,0,0-.19,0-.19.19m2.31-2.11l-.58,5.57.58,5.57c0,.19.19.19.19.19.19,0,.19-.19.19-.19l.77-5.57-.77-5.57c0-.19-.19-.19-.19-.19h0l-.19.19m7.3-.77l-.38,6.34.38,6.73c0,.19.19.38.38.38s.38-.19.38-.38l.77-6.73-.58-6.34c0-.19-.19-.38-.38-.38-.38,0-.58.19-.58.38m-4.8-.38l-.58,6.73.58,6.34c0,.19.19.38.38.38,0,0,.19-.19.19-.38l.58-6.34-.58-6.73c0-.19-.19-.38-.38-.38,0,.19-.19.19-.19.38m2.31-.19l-.58,6.92.58,6.53c0,.19.19.38.38.38s.38-.19.38-.38l.58-6.53-.58-6.92c0-.19-.19-.38-.38-.38s-.19.19-.38.38m5-3.46l-.58,10.38.58,6.73c0,.19.19.38.38.38.38,0,.58-.19.58-.38l.58-6.73-.58-10.38c0-.19-.19-.38-.38-.38-.38,0-.58.19-.58.38m2.5-2.31l-.38,12.68.38,6.73c0,.38.19.58.58.58.19,0,.58-.19.58-.58l.58-6.73-.58-12.68c0-.38-.19-.58-.58-.58s-.58.19-.58.58m10.19-.58l-.38,13.26.38,6.34c0,.38.38.77.77.77s.77-.38.77-.77l.38-6.34-.38-13.45c0-.38-.38-.77-.77-.77-.58.19-.77.38-.77.96m-7.69-.58l-.38,13.84.38,6.53c0,.38.19.58.58.58s.58-.19.58-.58l.38-6.53-.38-13.84c0-.38-.19-.58-.58-.58s-.58.38-.58.58m5,0l-.38,13.84.38,6.53c0,.38.38.77.77.77s.77-.38.77-.77l.38-6.53-.38-13.84c0-.38-.38-.77-.77-.77s-.77.38-.77.77m-2.5-.38l-.38,14.22.38,6.53c0,.38.19.58.58.58s.58-.19.58-.58l.38-6.53-.38-14.22c0-.38-.38-.58-.58-.58s-.58.19-.58.58m7.69-1.73l-.38,15.95.38,6.34c0,.38.38.77.77.77s.77-.38.77-.77l.38-6.34-.38-15.95c0-.38-.38-.77-.77-.77s-.77.38-.77.77m2.69-1.35l-.38,17.3.38,6.34c0,.38.38.77.77.77s.77-.38.77-.77l.38-6.34-.38-17.3c0-.38-.38-.77-.77-.77h-.19c-.38,0-.58.38-.58.77m3.08-1.73c-.58.19-.77.38-.77.96v24.41c0,.38.38.77.77.96h21.33c4.23,0,7.69-3.46,7.69-7.69s-3.46-7.69-7.69-7.69c-.96,0-2.11.19-2.88.58-.58-6.92-6.34-12.3-13.45-12.3h-.96c-1.35,0-2.69.38-4.04.77"/>
</svg>