<?xml version="1.0" encoding="UTF-8"?>
<svg id="Capa_1" data-name="Capa 1" xmlns="http://www.w3.org/2000/svg" viewBox="0 0 113.34 113.74">
  <defs>
    <style>
      .cls-1 {
        fill: #fff;
      }

      .cls-2 {
        fill: #010101;
      }
    </style>
  </defs>
  <path class="cls-2" d="m56.67,22.36c-20.98,0-37.98,17.01-37.98,37.98s17.01,37.98,37.98,37.98,37.98-17,37.98-37.98-17.01-37.98-37.98-37.98Zm17.42,54.79c-.68,1.12-2.14,1.47-3.26.79-8.92-5.45-20.15-6.68-33.37-3.66-1.27.29-2.54-.51-2.83-1.78-.29-1.27.5-2.54,1.78-2.83,14.47-3.31,26.88-1.88,36.89,4.23,1.12.68,1.47,2.14.79,3.26Zm4.65-10.34c-.86,1.39-2.68,1.83-4.07.98-10.21-6.27-25.77-8.09-37.85-4.43-1.57.47-3.22-.41-3.7-1.97-.47-1.57.41-3.22,1.97-3.69,13.8-4.19,30.94-2.16,42.67,5.05,1.39.86,1.83,2.68.97,4.07Zm.4-10.77c-12.24-7.27-32.44-7.94-44.13-4.39-1.88.57-3.86-.49-4.43-2.37-.57-1.88.49-3.86,2.37-4.43,13.42-4.07,35.72-3.29,49.82,5.08,1.69,1,2.24,3.18,1.24,4.87-1,1.69-3.18,2.24-4.87,1.24Z"/>
  <path class="cls-1" d="m74.09,77.15c-.68,1.12-2.14,1.47-3.26.79-8.92-5.45-20.15-6.68-33.37-3.66-1.27.29-2.54-.51-2.83-1.78-.29-1.27.5-2.54,1.78-2.83,14.47-3.31,26.88-1.88,36.89,4.23,1.12.68,1.47,2.14.79,3.26Z"/>
  <path class="cls-1" d="m78.74,66.8c-.86,1.39-2.68,1.83-4.07.98-10.21-6.27-25.77-8.09-37.85-4.43-1.57.47-3.22-.41-3.7-1.97-.47-1.57.41-3.22,1.97-3.69,13.8-4.19,30.94-2.16,42.67,5.05,1.39.86,1.83,2.68.97,4.07Z"/>
  <path class="cls-1" d="m79.14,56.03c-12.24-7.27-32.44-7.94-44.13-4.39-1.88.57-3.86-.49-4.43-2.37-.57-1.88.49-3.86,2.37-4.43,13.42-4.07,35.72-3.29,49.82,5.08,1.69,1,2.24,3.18,1.24,4.87-1,1.69-3.18,2.24-4.87,1.24Z"/>
</svg>