<?xml version="1.0" encoding="UTF-8"?>
<svg id="Capa_1" data-name="Capa 1" xmlns="http://www.w3.org/2000/svg" viewBox="0 0 113.34 113.74">
  <defs>
    <style>
      .cls-1 {
        fill: #fff;
      }

      .cls-2 {
        fill: #010101;
      }
    </style>
  </defs>
  <circle class="cls-2" cx="56.67" cy="57.97" r="37.98"/>
  <g>
    <path class="cls-1" d="m57.03,77.36c-1.61.01-3.21-.06-4.8-.29-.24-.03-.43.01-.64.16-3.16,2.22-6.32,4.44-9.58,6.51-.4.25-.81.47-1.22.71-.14.08-.3.14-.47.16-.52.07-.83-.24-.72-.76.19-.91.47-1.8.72-2.69.64-2.26,1.29-4.51,1.94-6.77.06-.2.04-.29-.17-.4-3.08-1.56-5.79-3.59-8.01-6.25-2.19-2.63-3.67-5.61-4.2-9.01-.6-3.89.08-7.56,1.96-11.01,1.84-3.38,4.48-5.99,7.68-8.07,3.41-2.22,7.16-3.6,11.16-4.32,2.98-.54,5.98-.67,8.99-.39,5.67.51,10.89,2.26,15.51,5.66,3.06,2.26,5.52,5.04,7.02,8.56,2.4,5.65,1.89,11.11-1.29,16.31-2.04,3.34-4.91,5.84-8.28,7.79-3.22,1.86-6.68,3.04-10.33,3.65-1.74.29-3.49.44-5.26.46Z"/>
    <path class="cls-2" d="m69.57,54.61c.06-.08.11-.18.18-.25,1.33-1.33,2.66-2.67,3.99-4,.5-.5,1.12-.57,1.71-.22.6.36.9,1.06.72,1.68-.07.24-.22.42-.39.59-1.09,1.09-2.18,2.18-3.27,3.26-.15.15-.14.24-.02.4,1.22,1.6,2.43,3.21,3.64,4.81.53.7.45,1.6-.16,2.15-.69.61-1.72.52-2.29-.24-1.08-1.42-2.16-2.85-3.24-4.28-.03-.04-.05-.08-.08-.11-.13-.12-.16-.36-.36-.37-.15,0-.51.54-.51.72,0,1.07,0,2.14,0,3.21,0,.75-.54,1.34-1.28,1.48-.68.13-1.38-.24-1.68-.89-.1-.21-.14-.44-.14-.67,0-3.53,0-7.07,0-10.6,0-.89.69-1.58,1.55-1.58.86,0,1.55.68,1.56,1.57,0,1.02,0,2.03,0,3.05v.21s.06.04.09.06Z"/>
    <path class="cls-2" d="m40.19,57.5c0-1.48,0-2.95,0-4.43,0-.23-.04-.32-.3-.31-.69.02-1.38.01-2.08,0-.91,0-1.57-.64-1.58-1.5,0-.87.66-1.54,1.57-1.55,2.63,0,5.26,0,7.89,0,.83,0,1.48.58,1.56,1.35.08.76-.39,1.44-1.14,1.65-.15.04-.31.04-.47.04-.69,0-1.38.01-2.08,0-.23,0-.27.07-.27.28,0,2.94,0,5.89,0,8.83,0,.79-.39,1.35-1.07,1.57-1.04.33-2.04-.39-2.05-1.48,0-1.49,0-2.97,0-4.46Z"/>
    <path class="cls-2" d="m57.78,56.55c0-1.75,0-3.51,0-5.26,0-.82.59-1.45,1.43-1.56.75-.09,1.49.42,1.69,1.17.05.19.05.38.05.58,0,2.89,0,5.78,0,8.66,0,.25.06.31.31.3,1.01-.01,2.03-.01,3.04,0,.79,0,1.43.61,1.46,1.34.03.78-.58,1.48-1.36,1.49-1.75.02-3.51.02-5.26,0-.76,0-1.35-.67-1.36-1.44,0-1.76,0-3.52,0-5.29Z"/>
    <path class="cls-2" d="m56.71,60.92c-.65-1.71-1.3-3.42-1.95-5.14-.58-1.52-1.15-3.05-1.74-4.57-.39-1.02-1.42-1.65-2.4-1.45-.86.17-1.44.72-1.75,1.53-1.06,2.78-2.11,5.56-3.16,8.34-.25.66-.55,1.31-.7,2.01-.23,1.12.14,1.67,1.23,1.83.84.12,1.39-.19,1.69-.97.19-.51.4-1.01.58-1.52.06-.16.13-.21.3-.2.72,0,1.44,0,2.16,0,.71,0,1.42,0,2.13,0,.19,0,.27.06.33.24.19.52.42,1.02.58,1.55.2.65.67.89,1.29.93.34.02.66-.05.97-.16.43-.16.64-.47.68-.92.05-.52-.07-1.01-.25-1.49Zm-6.16-2.9c-.3,0-.61-.01-.91,0-.2,0-.23-.04-.16-.23.4-1.12.79-2.24,1.19-3.36.09-.25.18-.5.29-.84.53,1.51,1.04,2.95,1.55,4.41h-1.96Z"/>
  </g>
</svg>