<?xml version="1.0" encoding="UTF-8"?>
<svg id="Capa_1" data-name="Capa 1" xmlns="http://www.w3.org/2000/svg" viewBox="0 0 113.34 113.74">
  <defs>
    <style>
      .cls-1 {
        fill: #fff;
      }

      .cls-2 {
        fill: #010101;
      }
    </style>
  </defs>
  <circle class="cls-2" cx="56.67" cy="57.97" r="37.98"/>
  <path class="cls-1" d="m75.16,42.54c-.15-.42-.32-.54-.59-.64-.59-.22-1.59.11-1.59.11,0,0-35.5,12.76-37.53,14.17-.44.3-.58.48-.66.69-.35,1.01.74,1.45.74,1.45l9.15,2.98s.34.05.46-.03c2.08-1.32,20.94-13.22,22.03-13.62.17-.05.3,0,.26.13-.44,1.53-16.82,16.09-16.82,16.09,0,0-.06.08-.1.17h-.02s-.85,9.06-.85,9.06c0,0-.36,2.78,2.42,0,1.96-1.96,3.86-3.6,4.81-4.4,3.15,2.17,6.53,4.58,7.99,5.83.73.63,1.35.73,1.85.71,1.39-.05,1.77-1.58,1.77-1.58,0,0,6.47-26.04,6.69-29.52.02-.34.05-.56.05-.79,0-.33-.03-.65-.08-.81Z"/>
</svg>