<?xml version="1.0" encoding="UTF-8"?>
<svg id="Capa_1" data-name="Capa 1" xmlns="http://www.w3.org/2000/svg" viewBox="0 0 113.34 113.74">
  <defs>
    <style>
      .cls-1 {
        fill: #fff;
      }

      .cls-2 {
        fill: #010101;
      }
    </style>
  </defs>
  <circle class="cls-2" cx="56.67" cy="58.85" r="37.98"/>
  <path class="cls-1" d="m77.96,46.3c0-.22,0-.23-.24-.23-.56,0-1.11-.06-1.65-.14-1.99-.3-8.43-3.68-9.52-9.21-.02-.11-.26-1.48-.26-2.07,0-.26,0-.26-.26-.27-.06,0-.12,0-.18,0-2.52,0-5.05,0-7.57,0-.51,0-.44-.06-.44.45,0,10.94,0,21.88,0,32.82,0,.41-.01.82-.08,1.22-.38,2.12-1.46,3.77-3.3,4.91-1.59.98-3.32,1.26-5.15.9-.58-.11-1.12-.33-1.66-.55-.04-.04-.09-.08-.13-.12-.18-.15-.38-.28-.58-.41-2.34-1.62-3.44-3.86-3.11-6.67.34-2.85,1.98-4.78,4.68-5.78.81-.3,1.65-.42,2.51-.37.55.03,1.11.1,1.64.25.19.05.29-.01.3-.21,0-.07,0-.14,0-.21,0-1.96-.07-6.25-.08-6.26,0-.57,0-1.13.01-1.7,0-.16-.08-.19-.22-.21-1.02-.12-2.04-.14-3.06-.07-1.41.1-2.78.39-4.12.87-2.12.76-3.99,1.95-5.6,3.52-1.38,1.35-2.47,2.92-3.27,4.69-.76,1.69-1.2,3.46-1.32,5.31-.05.8-.04,1.6.03,2.41.1,1.11.31,2.2.65,3.26.97,3.05,2.73,5.55,5.24,7.53.25.2.5.42.8.55,0,0,0,0,0,0,.13.11.26.23.38.34.41.31.84.57,1.29.79,2.8,1.38,5.76,1.95,8.87,1.57,4.04-.49,7.4-2.28,10.05-5.37,2.49-2.9,3.7-6.31,3.73-10.12.03-5.45,0-10.9.01-16.34,0-.13-.08-.31.07-.38.11-.05.22.1.33.17,2.03,1.33,4.21,2.29,6.58,2.84,1.38.32,2.77.51,4.19.5.45,0,.51-.02.51-.47,0-1.94-.1-7.22-.1-7.74Z"/>
</svg>