<?xml version="1.0" encoding="UTF-8"?>
<svg id="Capa_1" data-name="Capa 1" xmlns="http://www.w3.org/2000/svg" viewBox="0 0 113.34 113.74">
  <defs>
    <style>
      .cls-1 {
        fill: #fff;
      }

      .cls-2 {
        fill: #010101;
      }
    </style>
  </defs>
  <circle class="cls-2" cx="56.67" cy="58.28" r="37.98"/>
  <path class="cls-1" d="m49,80.16c18.55,0,28.7-15.37,28.7-28.7,0-.44,0-.87-.03-1.3,1.97-1.42,3.68-3.2,5.03-5.22-1.81.8-3.75,1.34-5.79,1.59,2.08-1.25,3.68-3.22,4.44-5.58-1.95,1.16-4.11,2-6.4,2.45-1.84-1.96-4.46-3.19-7.36-3.19-5.57,0-10.09,4.52-10.09,10.09,0,.79.09,1.56.26,2.3-8.38-.42-15.82-4.44-20.79-10.54-.87,1.49-1.37,3.22-1.37,5.07,0,3.5,1.78,6.59,4.49,8.4-1.65-.05-3.21-.51-4.57-1.26,0,.04,0,.08,0,.13,0,4.89,3.48,8.96,8.09,9.89-.85.23-1.74.35-2.66.35-.65,0-1.28-.06-1.9-.18,1.28,4.01,5.01,6.92,9.42,7.01-3.45,2.71-7.8,4.32-12.53,4.32-.81,0-1.62-.05-2.41-.14,4.46,2.86,9.76,4.53,15.46,4.53"/>
</svg>