<?xml version="1.0" encoding="UTF-8"?>
<svg id="Capa_1" data-name="Capa 1" xmlns="http://www.w3.org/2000/svg" viewBox="0 0 113.34 113.74">
  <path d="m54.84,21.14c6.49,0,12.99-.06,19.48.01,9.6.1,15.73,6.05,15.8,15.51.1,13.49.08,26.97,0,40.46-.06,9.03-4.67,15.01-13.5,15.59-15.1.99-30.29,1.25-45.38-.2-7.62-.73-12.51-6.62-12.6-14.34-.15-13.99-.18-27.97-.02-41.96.1-8.96,6.24-14.9,15.24-15.06,6.99-.12,13.99-.02,20.98-.02v.02Zm-.2,57.88v-.02c3.82,0,7.65.11,11.47-.03,4.15-.15,6.33-2.49,6.65-6.61.56-7.13-1.46-13.2-7.54-17.38-2.13-1.47-2.81-2.55-1.37-5.16,3.15-5.71,2.09-11.42-2.19-14.88-4.1-3.32-10.14-3.37-14.35-.12-4.47,3.45-5.56,8.94-2.42,14.77,1.34,2.48,1.04,3.68-1.2,5.24-5.61,3.94-8.02,9.55-7.76,16.36.19,5.06,2.56,7.56,7.73,7.79,3.65.16,7.31.03,10.97.03Z"/>
  <path d="m54.2,75.32c-3,0-6-.11-8.99.03-4.5.21-5.8-2.15-5.56-6.22.45-7.73,7.12-14.06,14.88-13.94,8.04.13,14.52,6.79,14.58,14.77.03,3.5-1.31,5.36-4.92,5.34-3.33-.02-6.66,0-9.99,0,0,0,0,.02,0,.03Z"/>
  <path d="m54.18,36.22c4.03-.09,7.75,3.57,7.71,7.59-.04,3.86-3.48,7.33-7.35,7.43-4.03.1-7.73-3.55-7.7-7.59.03-3.86,3.48-7.34,7.34-7.43Z"/>
</svg>