<?xml version="1.0" encoding="UTF-8"?>
<svg id="Capa_1" data-name="Capa 1" xmlns="http://www.w3.org/2000/svg" viewBox="0 0 113.34 113.74">
  <path d="m59.18,89.31c-4.83,0-9.66.09-14.48-.02-7.62-.17-11.58-4.24-11.67-11.91-.11-9.42,3.16-17.31,11.02-22.83,2.62-1.83,3.43-3.14,1.46-6.29-4.61-7.37-2.85-16.15,3.71-21.53,5.85-4.8,14.77-4.74,20.81.12,6.3,5.07,8.09,13.9,3.65,21.14-2.02,3.3-1.29,4.61,1.54,6.68,7.66,5.61,11.04,13.56,10.92,22.96-.09,7.34-4.13,11.4-11.5,11.62-5.16.16-10.32.03-15.48.03,0,0,0,.01,0,.02Zm.52-7.15c4.82,0,9.64-.04,14.46.01,3.28.04,4.77-1.39,4.92-4.77.53-11.4-8.15-20.92-19.32-20.98-11.34-.06-19.99,9.16-19.57,20.61.13,3.53,1.44,5.22,5.05,5.15,4.82-.1,9.64-.02,14.46-.02Zm-9.52-42.42c-.02,5.42,3.94,9.39,9.39,9.42,5.35.03,9.46-4.04,9.47-9.39,0-5.38-4.04-9.44-9.43-9.43-5.39,0-9.41,4.02-9.43,9.41Z"/>
</svg>