<?xml version="1.0" encoding="UTF-8"?>
<svg id="Capa_1" data-name="Capa 1" xmlns="http://www.w3.org/2000/svg" viewBox="0 0 113.34 113.74">
  <path d="m89.64,57.19c-.12,19.75-16.27,35.83-36.06,35.92-19.11.08-35.78-16.5-35.94-35.75-.16-20.01,16.54-36.46,36.8-36.23,19.56.22,35.33,16.37,35.2,36.06Zm-35.98,16.77c1.83,0,3.66.02,5.49,0,8.35-.12,10.95-3.99,8.05-11.94-.75-2.05-1.61-4.17-3.4-5.43-2.92-2.05-3.43-4.03-1.9-7.49,1.59-3.6.22-7.23-3.03-9.75-3.13-2.42-6.55-2.41-9.79-.37-3.04,1.92-5.32,5.33-3.84,8.43,2.37,4.97.43,7.55-2.78,10.91-3.26,3.41-4.13,8.18-2.12,12.59,1.78,3.9,5.91,2.94,9.33,3.05,1.33.04,2.66,0,3.99,0Z"/>
  <path d="m53.42,71.25c-1.49,0-2.99.02-4.48,0-6.48-.1-8.44-3.32-5.67-9.33,2.06-4.48,7.52-7.4,12.33-6.58,4.97.85,9.38,5.66,9.78,10.63.24,2.95-.85,4.93-3.99,5.11-2.65.15-5.31.03-7.96.03,0,.04,0,.08,0,.13Z"/>
  <path d="m59.64,46.56c-.62,3.54-2.55,5.86-6.31,5.6-3.45-.24-5.48-2.47-5.32-5.96.15-3.42,2.25-5.69,5.69-5.67,3.63.02,5.68,2.28,5.95,6.03Z"/>
</svg>