<?xml version="1.0" encoding="UTF-8"?>
<svg id="Capa_1" data-name="Capa 1" xmlns="http://www.w3.org/2000/svg" viewBox="0 0 113.34 113.74">
  <defs>
    <style>
      .cls-1 {
        fill: #fff;
      }

      .cls-2 {
        fill: #010101;
      }
    </style>
  </defs>
  <circle class="cls-2" cx="56.67" cy="60.34" r="37.98"/>
  <path class="cls-1" d="m81.21,48.44c-.23,4.98-3.71,11.81-10.44,20.47-6.96,9.05-12.85,13.57-17.67,13.57-2.99,0-5.51-2.75-7.58-8.26-1.38-5.05-2.75-10.1-4.13-15.15-1.53-5.51-3.18-8.27-4.93-8.27-.38,0-1.72.81-4.02,2.41l-2.41-3.1c2.53-2.22,5.02-4.44,7.47-6.66,3.37-2.91,5.9-4.44,7.59-4.6,3.98-.38,6.44,2.34,7.36,8.17,1,6.29,1.68,10.2,2.07,11.73,1.15,5.22,2.41,7.83,3.79,7.83,1.07,0,2.68-1.69,4.83-5.08,2.14-3.38,3.29-5.96,3.45-7.73.31-2.92-.84-4.39-3.45-4.39-1.23,0-2.49.28-3.79.84,2.52-8.24,7.33-12.24,14.42-12.02,5.26.15,7.74,3.57,7.44,10.24Z"/>
</svg>