<?xml version="1.0" encoding="UTF-8"?>
<svg id="Capa_1" data-name="Capa 1" xmlns="http://www.w3.org/2000/svg" viewBox="0 0 113.34 113.74">
  <defs>
    <style>
      .cls-1 {
        fill: #fff;
        fill-rule: evenodd;
      }

      .cls-2 {
        fill: #010101;
      }
    </style>
  </defs>
  <circle class="cls-2" cx="52.6" cy="58.28" r="37.98"/>
  <g id="WA_Logo" data-name="WA Logo">
    <path class="cls-1" d="m70.87,40.48c-4.55-4.55-10.6-7.06-17.04-7.06-13.28,0-24.09,10.81-24.1,24.09,0,4.25,1.11,8.39,3.22,12.04l-3.42,12.48,12.77-3.35c3.52,1.92,7.48,2.93,11.51,2.93h0s0,0,0,0c13.28,0,24.09-10.81,24.1-24.09,0-6.44-2.5-12.49-7.05-17.04Zm-17.04,37.06h0c-3.59,0-7.12-.97-10.19-2.79l-.73-.43-7.58,1.99,2.02-7.39-.48-.76c-2-3.19-3.06-6.87-3.06-10.65,0-11.04,8.99-20.02,20.04-20.02,5.35,0,10.38,2.09,14.16,5.87s5.86,8.81,5.86,14.16c0,11.04-8.99,20.02-20.03,20.02Zm10.99-14.99c-.6-.3-3.56-1.76-4.11-1.96-.55-.2-.95-.3-1.35.3-.4.6-1.56,1.96-1.91,2.36-.35.4-.7.45-1.3.15-.6-.3-2.54-.94-4.84-2.99-1.79-1.6-3-3.57-3.35-4.17-.35-.6-.04-.93.26-1.23.27-.27.6-.7.9-1.05.3-.35.4-.6.6-1s.1-.75-.05-1.05c-.15-.3-1.35-3.26-1.86-4.47-.49-1.17-.99-1.01-1.35-1.03-.35-.02-.75-.02-1.15-.02s-1.05.15-1.61.75c-.55.6-2.11,2.06-2.11,5.02s2.16,5.82,2.46,6.23c.3.4,4.25,6.48,10.28,9.09,1.44.62,2.56.99,3.43,1.27,1.44.46,2.75.39,3.79.24,1.16-.17,3.56-1.46,4.06-2.86.5-1.41.5-2.61.35-2.86-.15-.25-.55-.4-1.15-.7Z"/>
  </g>
</svg>