<?xml version="1.0" encoding="UTF-8"?>
<svg id="Capa_1" data-name="Capa 1" xmlns="http://www.w3.org/2000/svg" viewBox="0 0 113.34 113.74">
  <defs>
    <style>
      .cls-1 {
        fill: #fff;
      }

      .cls-2 {
        fill: #010101;
      }
    </style>
  </defs>
  <circle class="cls-2" cx="54.71" cy="58.85" r="37.98"/>
  <path class="cls-1" d="m78.97,46.66c-.58-2.18-2.3-3.9-4.48-4.48-3.95-1.06-19.79-1.06-19.79-1.06,0,0-15.84,0-19.79,1.06-2.18.58-3.9,2.3-4.48,4.48-1.06,3.95-1.06,12.19-1.06,12.19,0,0,0,8.24,1.06,12.19.58,2.18,2.3,3.9,4.48,4.48,3.95,1.06,19.79,1.06,19.79,1.06,0,0,15.84,0,19.79-1.06,2.18-.58,3.9-2.3,4.48-4.48,1.06-3.95,1.06-12.19,1.06-12.19,0,0,0-8.24-1.06-12.19Zm-29.33,19.79v-15.19l13.16,7.6-13.16,7.6Z"/>
</svg>